<svg xmlns="http://www.w3.org/2000/svg" x="0px" y="0px" width="16" height="16" viewBox="0,0,256,256">
<g fill="#ffffff" fill-rule="nonzero" stroke="none" stroke-width="1" stroke-linecap="butt" stroke-linejoin="miter" stroke-miterlimit="10" stroke-dasharray="" stroke-dashoffset="0" font-family="none" font-weight="none" font-size="none" text-anchor="none" style="mix-blend-mode: normal"><g transform="scale(6.4,6.4)"><path d="M1.5,35.5v-31h10.293l3,3h23.707v28z"></path><path d="M11.586,5l2.707,2.707l0.293,0.293h0.414h23v27h-36v-30h9.586M12,4h-11v32h38v-29h-24l-3,-3z"></path><g><path d="M1.5,35.5v-26h10.651l3,-2h23.349v28z"></path><path d="M38,8v27h-36v-25h10h0.303l0.252,-0.168l2.748,-1.832h22.697M39,7h-24l-3,2h-11v27h38v-29z"></path></g></g></g>
</svg>